<svg width="17" height="15" viewBox="0 0 17 15" fill="none" xmlns="http://www.w3.org/2000/svg">
<path d="M14.0533 2.12502C13.6979 1.76842 13.2757 1.48549 12.8107 1.29243C12.3458 1.09938 11.8473 1 11.3439 1C10.8405 1 10.342 1.09938 9.87707 1.29243C9.41214 1.48549 8.98988 1.76842 8.63453 2.12502L8.08911 2.67752L7.54369 2.12502C7.18834 1.76842 6.76609 1.48549 6.30115 1.29243C5.83622 1.09938 5.33774 1 4.83432 1C4.3309 1 3.83242 1.09938 3.36749 1.29243C2.90255 1.48549 2.4803 1.76842 2.12494 2.12502C0.623278 3.62668 0.531195 6.16252 2.42244 8.08918L8.08911 13.7558L13.7558 8.08918C15.647 6.16252 15.5549 3.62668 14.0533 2.12502Z" stroke="#E63946" stroke-width="2" stroke-linecap="round" stroke-linejoin="round"/>
</svg>
